<svg width="40" height="16" viewBox="0 0 40 16" fill="none" xmlns="http://www.w3.org/2000/svg">
<path fill-rule="evenodd" clip-rule="evenodd" d="M6.69769 3.14922C6.43817 2.5284 5.56198 2.52839 5.30244 3.14919L6.69769 3.14922ZM5.30244 3.14919L4.14719 5.90977L1.19202 6.16613C0.519264 6.22467 0.262282 7.05966 0.759713 7.49464L3.00514 9.45915L2.33207 12.3824C2.18436 13.0238 2.87792 13.5567 3.46133 13.2023L6.00032 11.6561L8.53797 13.2015C9.12269 13.5588 9.81568 13.0227 9.66861 12.3826L8.99549 9.45915L11.2402 7.49537C11.7385 7.05961 11.4793 6.22519 10.8083 6.16667L7.85294 5.91029L6.69769 3.14922" fill="#FF970D"/>
<path d="M21.3955 3.89746V9.90869H22.5635V10.8608H21.3955V13H20.3672V10.8608H16.0889V9.95947C16.4867 9.5109 16.8887 9.03271 17.2949 8.5249C17.7012 8.01286 18.0884 7.49447 18.4565 6.96973C18.8289 6.44499 19.1717 5.92236 19.4849 5.40186C19.8022 4.87712 20.0688 4.37565 20.2847 3.89746H21.3955ZM17.2632 9.90869H20.3672V5.45264C20.0498 6.007 19.7493 6.50212 19.4658 6.93799C19.1823 7.37386 18.9115 7.76953 18.6533 8.125C18.3994 8.48047 18.1561 8.80208 17.9233 9.08984C17.6906 9.3776 17.4705 9.65055 17.2632 9.90869ZM24.4233 13.1396C24.2287 13.1396 24.0615 13.0698 23.9219 12.9302C23.7865 12.7905 23.7188 12.6234 23.7188 12.4287C23.7188 12.234 23.7865 12.0669 23.9219 11.9272C24.0615 11.7834 24.2287 11.7114 24.4233 11.7114C24.6222 11.7114 24.7915 11.7834 24.9312 11.9272C25.0708 12.0669 25.1406 12.234 25.1406 12.4287C25.1406 12.6234 25.0708 12.7905 24.9312 12.9302C24.7915 13.0698 24.6222 13.1396 24.4233 13.1396ZM32.1992 7.90283C32.1992 8.73649 32.1167 9.47917 31.9517 10.1309C31.7866 10.7783 31.5454 11.3285 31.228 11.7812C30.9106 12.2298 30.5234 12.5726 30.0664 12.8096C29.6094 13.0423 29.0889 13.1587 28.5049 13.1587C27.904 13.1587 27.375 13.0529 26.918 12.8413V11.8447C27.4215 12.1283 27.959 12.27 28.5303 12.27C28.9408 12.27 29.3068 12.1854 29.6284 12.0161C29.9543 11.8468 30.2293 11.6014 30.4536 11.2798C30.6779 10.9539 30.8493 10.554 30.9678 10.0801C31.0863 9.60612 31.1455 9.06234 31.1455 8.44873H31.1201C30.7308 9.23161 30.0537 9.62305 29.0889 9.62305C28.6995 9.62305 28.342 9.55534 28.0161 9.41992C27.6903 9.28027 27.4089 9.08561 27.1719 8.83594C26.9349 8.58203 26.7508 8.28158 26.6196 7.93457C26.4884 7.58757 26.4229 7.20459 26.4229 6.78564C26.4229 6.33708 26.4948 5.9266 26.6387 5.5542C26.7868 5.1818 26.9899 4.8623 27.248 4.5957C27.5104 4.32487 27.8193 4.1154 28.1748 3.96729C28.5345 3.81917 28.9259 3.74512 29.3491 3.74512C29.8062 3.74512 30.2103 3.83822 30.5615 4.02441C30.917 4.20638 31.2153 4.4751 31.4565 4.83057C31.6978 5.1818 31.8818 5.61556 32.0088 6.13184C32.1357 6.64811 32.1992 7.23844 32.1992 7.90283ZM31.0757 6.96973C31.0757 6.61849 31.0291 6.29899 30.936 6.01123C30.8472 5.72347 30.7223 5.47803 30.5615 5.2749C30.4007 5.06755 30.2082 4.90885 29.9839 4.79883C29.7638 4.68457 29.5226 4.62744 29.2603 4.62744C29.0106 4.62744 28.7778 4.67822 28.562 4.77979C28.3462 4.87712 28.1579 5.01676 27.9971 5.19873C27.8405 5.37646 27.7157 5.59017 27.6226 5.83984C27.5337 6.08529 27.4893 6.354 27.4893 6.646C27.4893 6.96761 27.5316 7.25537 27.6162 7.50928C27.7051 7.76318 27.8299 7.979 27.9907 8.15674C28.1515 8.33024 28.3441 8.46354 28.5684 8.55664C28.7969 8.64974 29.0487 8.69629 29.3237 8.69629C29.5649 8.69629 29.7913 8.65186 30.0029 8.56299C30.2188 8.46989 30.4049 8.34717 30.5615 8.19482C30.7223 8.03825 30.8472 7.85628 30.936 7.64893C31.0291 7.43734 31.0757 7.21094 31.0757 6.96973ZM39.207 7.90283C39.207 8.73649 39.1245 9.47917 38.9595 10.1309C38.7944 10.7783 38.5532 11.3285 38.2358 11.7812C37.9185 12.2298 37.5312 12.5726 37.0742 12.8096C36.6172 13.0423 36.0967 13.1587 35.5127 13.1587C34.9118 13.1587 34.3828 13.0529 33.9258 12.8413V11.8447C34.4294 12.1283 34.9668 12.27 35.5381 12.27C35.9486 12.27 36.3146 12.1854 36.6362 12.0161C36.9621 11.8468 37.2371 11.6014 37.4614 11.2798C37.6857 10.9539 37.8571 10.554 37.9756 10.0801C38.0941 9.60612 38.1533 9.06234 38.1533 8.44873H38.1279C37.7386 9.23161 37.0615 9.62305 36.0967 9.62305C35.7074 9.62305 35.3498 9.55534 35.0239 9.41992C34.6981 9.28027 34.4167 9.08561 34.1797 8.83594C33.9427 8.58203 33.7586 8.28158 33.6274 7.93457C33.4963 7.58757 33.4307 7.20459 33.4307 6.78564C33.4307 6.33708 33.5026 5.9266 33.6465 5.5542C33.7946 5.1818 33.9977 4.8623 34.2559 4.5957C34.5182 4.32487 34.8271 4.1154 35.1826 3.96729C35.5423 3.81917 35.9338 3.74512 36.3569 3.74512C36.814 3.74512 37.2181 3.83822 37.5693 4.02441C37.9248 4.20638 38.2231 4.4751 38.4644 4.83057C38.7056 5.1818 38.8896 5.61556 39.0166 6.13184C39.1436 6.64811 39.207 7.23844 39.207 7.90283ZM38.0835 6.96973C38.0835 6.61849 38.0369 6.29899 37.9438 6.01123C37.855 5.72347 37.7301 5.47803 37.5693 5.2749C37.4085 5.06755 37.216 4.90885 36.9917 4.79883C36.7716 4.68457 36.5304 4.62744 36.2681 4.62744C36.0184 4.62744 35.7856 4.67822 35.5698 4.77979C35.354 4.87712 35.1657 5.01676 35.0049 5.19873C34.8483 5.37646 34.7235 5.59017 34.6304 5.83984C34.5415 6.08529 34.4971 6.354 34.4971 6.646C34.4971 6.96761 34.5394 7.25537 34.624 7.50928C34.7129 7.76318 34.8377 7.979 34.9985 8.15674C35.1593 8.33024 35.3519 8.46354 35.5762 8.55664C35.8047 8.64974 36.0565 8.69629 36.3315 8.69629C36.5728 8.69629 36.7992 8.65186 37.0107 8.56299C37.2266 8.46989 37.4128 8.34717 37.5693 8.19482C37.7301 8.03825 37.855 7.85628 37.9438 7.64893C38.0369 7.43734 38.0835 7.21094 38.0835 6.96973Z" fill="black"/>
</svg>
